<?xml version="1.0" standalone="no"?>
<!DOCTYPE svg PUBLIC "-//W3C//DTD SVG 20010904//EN"
 "http://www.w3.org/TR/2001/REC-SVG-20010904/DTD/svg10.dtd">
<svg version="1.0" xmlns="http://www.w3.org/2000/svg"
 width="256.000000pt" height="256.000000pt" viewBox="0 0 256.000000 256.000000"
 preserveAspectRatio="xMidYMid meet">
<metadata>
Created by potrace 1.14, written by Peter Selinger 2001-2017
</metadata>
<g transform="translate(0.000000,256.000000) scale(0.100000,-0.100000)"
fill="#000000" stroke="none">
<path d="M883 2058 c-6 -7 -65 -110 -133 -228 -68 -118 -152 -264 -187 -323
-34 -60 -63 -110 -63 -112 0 -2 -19 -36 -43 -77 -24 -40 -55 -93 -69 -118 -99
-175 -372 -647 -379 -654 -5 -6 -9 -20 -9 -33 l0 -23 899 0 900 0 -206 358
c-113 196 -230 400 -260 452 -30 52 -58 102 -63 110 -5 8 -66 114 -135 235
-69 121 -130 227 -135 235 -6 8 -21 35 -35 60 -72 130 -72 130 -82 118z m437
-1000 c51 -91 79 -139 157 -274 39 -67 76 -131 82 -143 l12 -21 -290 1 -290 2
31 56 c18 31 39 67 48 81 9 14 59 100 111 192 51 92 96 168 99 168 3 0 21 -28
40 -62z"/>
<path d="M1660 2061 c0 -5 -67 -127 -150 -270 -82 -143 -150 -264 -150 -270 0
-5 16 -37 36 -70 l36 -61 117 205 c64 113 119 205 122 205 3 0 29 -42 58 -92
69 -124 97 -173 136 -238 39 -66 457 -796 473 -826 l11 -21 -231 -1 c-127 -1
-232 -3 -235 -6 -3 -2 11 -31 29 -63 l34 -58 307 -3 c294 -2 307 -2 307 16 0
11 -44 96 -98 189 -55 94 -102 177 -106 184 -3 8 -16 30 -27 49 -12 19 -149
258 -305 530 -157 272 -289 502 -294 510 -5 8 -19 32 -30 52 -20 37 -40 57
-40 39z"/>
</g>
</svg>
